<svg width="680" height="480" viewBox="0 0 680 480" xmlns="http://www.w3.org/2000/svg" role="img">
<title>인간연합 로고 — 두 주먹</title>
<desc>두 주먹이 맞닿는 인간연합 심볼</desc>

<rect width="680" height="480" fill="#0a0a0a"/>
<circle cx="340" cy="210" r="166" fill="none" stroke="#f5c800" stroke-width="2"/>
<circle cx="340" cy="210" r="138" fill="none" stroke="#f5c800" stroke-width="0.6" opacity="0.3"/>

<!-- 왼쪽 주먹 -->
<g fill="#f5c800">
  <rect x="148" y="168" width="88" height="76" rx="10"/>
  <rect x="158" y="142" width="18" height="34" rx="8"/>
  <rect x="180" y="136" width="18" height="38" rx="8"/>
  <rect x="202" y="140" width="18" height="34" rx="8"/>
  <rect x="222" y="148" width="16" height="28" rx="8"/>
  <rect x="136" y="196" width="28" height="18" rx="8"/>
  <rect x="158" y="166" width="82" height="6" rx="3" fill="#0a0a0a" opacity="0.25"/>
</g>

<!-- 오른쪽 주먹 -->
<g fill="#f5c800">
  <rect x="444" y="168" width="88" height="76" rx="10"/>
  <rect x="504" y="142" width="18" height="34" rx="8"/>
  <rect x="482" y="136" width="18" height="38" rx="8"/>
  <rect x="460" y="140" width="18" height="34" rx="8"/>
  <rect x="442" y="148" width="16" height="28" rx="8"/>
  <rect x="516" y="196" width="28" height="18" rx="8"/>
  <rect x="440" y="166" width="82" height="6" rx="3" fill="#0a0a0a" opacity="0.25"/>
</g>

<!-- 임팩트 라인 -->
<g stroke="#f5c800" stroke-linecap="round" fill="none">
  <line x1="340" y1="175" x2="340" y2="150" stroke-width="2.5"/>
  <line x1="324" y1="178" x2="314" y2="156" stroke-width="1.8"/>
  <line x1="356" y1="178" x2="366" y2="156" stroke-width="1.8"/>
  <line x1="312" y1="186" x2="298" y2="170" stroke-width="1.2" opacity="0.6"/>
  <line x1="368" y1="186" x2="382" y2="170" stroke-width="1.2" opacity="0.6"/>
</g>

<!-- 구분선 -->
<line x1="160" y1="400" x2="520" y2="400" stroke="#f5c800" stroke-width="0.6" opacity="0.3"/>

<!-- 텍스트 -->
<text x="340" y="430" fill="#f5c800" font-family="Arial Black, Arial, sans-serif" font-size="20" font-weight="900" letter-spacing="6" text-anchor="middle">HUMAN ALLIANCE</text>
<text x="340" y="452" fill="#f5c800" font-family="Arial, sans-serif" font-size="9" letter-spacing="5" text-anchor="middle" opacity="0.5">ZERO PRODUCTIVE · 100% HUMAN</text>

</svg>
